<?xml version="1.0" encoding="UTF-8"?><svg fill-opacity="1" color-rendering="auto" color-interpolation="auto" text-rendering="auto" stroke="black" stroke-linecap="square" width="728" stroke-miterlimit="10" shape-rendering="auto" stroke-opacity="1" fill="black" stroke-dasharray="none" font-weight="normal" stroke-width="1" height="488" font-family="'Dialog'" font-style="normal" stroke-linejoin="miter" font-size="12px" stroke-dashoffset="0" image-rendering="auto" xmlns="http://www.w3.org/2000/svg">
  <!--Generated by the Batik Graphics2D SVG Generator-->
  <defs id="genericDefs"/>
  <g>
    <g fill="white" font-size="10px" stroke="white">
      <rect x="0" width="728" height="488" y="0" stroke="none"/>
    </g>
    <g font-size="10px" fill="white" text-rendering="geometricPrecision" color-rendering="optimizeQuality" image-rendering="optimizeQuality" stroke="white" color-interpolation="linearRGB">
      <rect x="0" width="628" height="388" y="0" stroke="none"/>
    </g>
    <g stroke-linecap="butt" font-size="10px" fill="rgb(61,99,128)" text-rendering="geometricPrecision" color-rendering="optimizeQuality" image-rendering="optimizeQuality" stroke="rgb(61,99,128)" color-interpolation="linearRGB" stroke-miterlimit="2">
      <line y2="64" fill="none" x1="368" x2="544" y1="64"/>
      <g xmlns:sodipodi="http://sodipodi.sourceforge.net/DTD/sodipodi-0.dtd" xmlns:rdf="http://www.w3.org/1999/02/22-rdf-syntax-ns#" xmlns:inkscape="http://www.inkscape.org/namespaces/inkscape" xmlns:dc="http://purl.org/dc/elements/1.1/" xmlns:cc="http://creativecommons.org/ns#" filename="ui/images/hop-arrow-default.svg" transform="translate(474 56) scale(1 1) rotate(90 8 8)" stroke="none">
    <path fill="#0e3a5a" d="m 8,0 -4,16 4,-2 4,2"/>
</g>
      <line y2="144" fill="none" x1="368" x2="544" y1="144"/>
      <g xmlns:sodipodi="http://sodipodi.sourceforge.net/DTD/sodipodi-0.dtd" xmlns:rdf="http://www.w3.org/1999/02/22-rdf-syntax-ns#" xmlns:inkscape="http://www.inkscape.org/namespaces/inkscape" xmlns:dc="http://purl.org/dc/elements/1.1/" xmlns:cc="http://creativecommons.org/ns#" filename="ui/images/hop-arrow-default.svg" transform="translate(474 136) scale(1 1) rotate(90 8 8)" stroke="none">
    <path fill="#0e3a5a" d="m 8,0 -4,16 4,-2 4,2"/>
</g>
      <line y2="224" fill="none" x1="368" x2="544" y1="224"/>
      <g xmlns:sodipodi="http://sodipodi.sourceforge.net/DTD/sodipodi-0.dtd" xmlns:rdf="http://www.w3.org/1999/02/22-rdf-syntax-ns#" xmlns:inkscape="http://www.inkscape.org/namespaces/inkscape" xmlns:dc="http://purl.org/dc/elements/1.1/" xmlns:cc="http://creativecommons.org/ns#" filename="ui/images/hop-arrow-default.svg" transform="translate(474 216) scale(1 1) rotate(90 8 8)" stroke="none">
    <path fill="#0e3a5a" d="m 8,0 -4,16 4,-2 4,2"/>
</g>
      <line y2="304" fill="none" x1="368" x2="544" y1="304"/>
      <g xmlns:sodipodi="http://sodipodi.sourceforge.net/DTD/sodipodi-0.dtd" xmlns:rdf="http://www.w3.org/1999/02/22-rdf-syntax-ns#" xmlns:inkscape="http://www.inkscape.org/namespaces/inkscape" xmlns:dc="http://purl.org/dc/elements/1.1/" xmlns:cc="http://creativecommons.org/ns#" filename="ui/images/hop-arrow-default.svg" transform="translate(474 296) scale(1 1) rotate(90 8 8)" stroke="none">
    <path fill="#0e3a5a" d="m 8,0 -4,16 4,-2 4,2"/>
</g>
      <line y2="64" fill="none" x1="80" x2="368" y1="208"/>
      <g xmlns:sodipodi="http://sodipodi.sourceforge.net/DTD/sodipodi-0.dtd" xmlns:rdf="http://www.w3.org/1999/02/22-rdf-syntax-ns#" xmlns:inkscape="http://www.inkscape.org/namespaces/inkscape" xmlns:dc="http://purl.org/dc/elements/1.1/" xmlns:cc="http://creativecommons.org/ns#" filename="ui/images/hop-arrow-default.svg" transform="translate(259 107) scale(1 1) rotate(63.435 8 8)" stroke="none">
    <path fill="#0e3a5a" d="m 8,0 -4,16 4,-2 4,2"/>
</g>
      <line y2="144" fill="none" x1="80" x2="368" y1="208"/>
      <g xmlns:sodipodi="http://sodipodi.sourceforge.net/DTD/sodipodi-0.dtd" xmlns:rdf="http://www.w3.org/1999/02/22-rdf-syntax-ns#" xmlns:inkscape="http://www.inkscape.org/namespaces/inkscape" xmlns:dc="http://purl.org/dc/elements/1.1/" xmlns:cc="http://creativecommons.org/ns#" filename="ui/images/hop-arrow-default.svg" transform="translate(259 159) scale(1 1) rotate(77.471 8 8)" stroke="none">
    <path fill="#0e3a5a" d="m 8,0 -4,16 4,-2 4,2"/>
</g>
      <line y2="224" fill="none" x1="80" x2="368" y1="208"/>
      <g xmlns:sodipodi="http://sodipodi.sourceforge.net/DTD/sodipodi-0.dtd" xmlns:rdf="http://www.w3.org/1999/02/22-rdf-syntax-ns#" xmlns:inkscape="http://www.inkscape.org/namespaces/inkscape" xmlns:dc="http://purl.org/dc/elements/1.1/" xmlns:cc="http://creativecommons.org/ns#" filename="ui/images/hop-arrow-default.svg" transform="translate(259 210) scale(1 1) rotate(93.18 8 8)" stroke="none">
    <path fill="#0e3a5a" d="m 8,0 -4,16 4,-2 4,2"/>
</g>
      <line y2="304" fill="none" x1="80" x2="368" y1="208"/>
      <g xmlns:sodipodi="http://sodipodi.sourceforge.net/DTD/sodipodi-0.dtd" xmlns:rdf="http://www.w3.org/1999/02/22-rdf-syntax-ns#" xmlns:inkscape="http://www.inkscape.org/namespaces/inkscape" xmlns:dc="http://purl.org/dc/elements/1.1/" xmlns:cc="http://creativecommons.org/ns#" filename="ui/images/hop-arrow-default.svg" transform="translate(259 262) scale(1 1) rotate(108.435 8 8)" stroke="none">
    <path fill="#0e3a5a" d="m 8,0 -4,16 4,-2 4,2"/>
</g>
      <rect x="351" y="47" fill="white" width="33" rx="4" ry="4" height="33" stroke="none"/>
      <g xmlns:sodipodi="http://sodipodi.sourceforge.net/DTD/sodipodi-0.dtd" xmlns:rdf="http://www.w3.org/1999/02/22-rdf-syntax-ns#" xmlns:inkscape="http://www.inkscape.org/namespaces/inkscape" xmlns:dc="http://purl.org/dc/elements/1.1/" xmlns:cc="http://creativecommons.org/ns#" filename="neo4j_cypher.svg" transform="translate(352 48) scale(0.06 0.06) rotate(0 266.5 266.5)" stroke="none">
  <path style="fill:#000000;stroke-width:2.22373605" d="m 127.02311,25.696386 c 0.78986,16.27965 0.12492,32.5612 -0.9393,48.83755 -3.77733,31.192734 -6.51055,62.394944 -7.73183,93.608664 -0.42771,14.04192 -0.46481,28.08505 0.20615,42.1261 0.19829,3.36454 0.47162,6.72823 0.44418,10.09353 0.0659,4.35627 1.10296,8.70611 1.64014,13.05911 0.22028,2.50815 0.45006,5.016 0.92993,7.52059 0,0 -34.150431,5.61555 -34.150431,5.61555 v 0 c 0.0793,-2.53366 -0.008,-5.06746 -0.32707,-7.59949 -0.54504,-4.34579 -1.65374,-8.68134 -2.16411,-13.02434 -0.0793,-3.41405 0.11627,-6.8271 0.398,-10.24 1.02879,-14.24468 2.09763,-28.48915 3.38254,-42.7317 2.78589,-31.21674 6.24525,-62.4286 8.07992,-93.652974 -0.0353,-15.99493 -0.34554,-32.01442 -3.67619,-47.97971 0,0 33.908271,-5.63288 33.908271,-5.63288 z"/>
    <path style="fill:#000000;stroke-width:2.30626583" d="m 226.79301,8.0966357 c -3.72204,9.9188003 -5.02817,19.8786603 -6.16108,29.8377503 -0.97098,19.7584 -3.59565,39.50581 -5.42629,59.25927 -1.52696,17.563794 -1.57974,35.133224 -1.69764,52.700714 -0.664,14.21098 0.16031,28.41629 1.57746,42.62145 0.77655,7.46199 1.66367,14.9231 2.46995,22.38485 0.0545,0.55529 0.10894,1.11056 0.16389,1.66583 0,0 -38.55506,5.25172 -38.55506,5.25172 v 0 c 0.0134,-0.56363 0.0312,-1.12728 0.0447,-1.69091 0.12856,-7.54211 -0.12053,-15.08415 -0.61704,-22.62516 -0.9273,-14.24757 -1.31028,-28.49383 -0.90988,-42.74375 0.38673,-17.62933 1.38982,-35.25658 2.85775,-52.88195 1.75649,-19.703034 4.61459,-39.401084 4.36934,-59.113054 0.45389,-9.79513 1.09745,-19.58868 2.92683,-29.37263 0,0 38.95764,-5.2941303 38.95764,-5.2941303 z"/>
    <path style="fill:#000000;stroke-width:2.61456156" d="m 25.843749,74.449766 c 17.04643,1.86359 34.09939,2.03985 51.14951,2.48462 33.477971,1.90297 66.957191,2.9894 100.437281,3.53582 26.50275,0.3345 53.00548,0.034 79.50793,-0.54222 11.1475,-0.25979 22.29475,-0.73337 33.44142,-1.41579 2.29694,-0.1488 4.59391,-0.29262 6.89104,-0.36166 0,0 -9.56373,32.564054 -9.56373,32.564054 v 0 c -2.22825,-0.064 -4.45635,-0.19811 -6.68441,-0.3413 -10.87079,-0.65661 -21.74208,-1.11534 -32.61359,-1.40774 -26.26317,-0.69622 -52.52647,-1.25454 -78.78968,-1.92575 -33.57071,-0.8714 -67.14098,-2.29273 -100.712241,-2.57438 -17.53666,0.45055 -35.07578,0.65804 -52.60899,2.48462 0,0 9.54546,-32.500274 9.54546,-32.500274 z"/>
    <path style="fill:#000000;stroke-width:2.81284857" d="m 49.003029,142.82461 c 15.69256,4.01264 31.43871,3.9872 47.1567,4.7936 37.585451,2.52403 75.165841,0.44598 112.746271,-2.11041 16.54655,-0.91357 33.08611,-2.20385 49.62426,-4.48353 0,0 -9.54491,28.30666 -9.54491,28.30666 v 0 c -16.35649,1.37691 -32.71325,1.97809 -49.07209,2.78116 -37.78104,2.28097 -75.56024,4.26168 -113.346821,3.76626 -16.23421,0.23233 -32.48263,1.06418 -48.71077,-0.9435 0,0 11.14736,-32.11024 11.14736,-32.11024 z" id="path42"/>
    <path style="fill:#000000;stroke-width:7.49440956" d="m 378.76707,140.87099 c -79.29083,0 -132.50116,46.1656 -132.50116,135.72375 v 63.85233 a 59.95527,59.95527 0 0 1 25.8557,-6.14542 59.130888,59.130888 0 0 1 25.93063,5.99553 v -64.00234 c 0,-58.08162 32.07605,-87.90931 80.93966,-87.90931 48.86348,0 80.48989,29.82769 80.48989,87.90931 v 139.54599 h 51.63643 V 276.29484 C 511.26905,186.21212 458.05778,140.87099 378.76707,140.87099 Z"/>
    <path style="fill:#018bff;stroke-width:7.49440956" d="m 269.87325,350.71438 a 43.76735,43.76735 0 0 0 -26.53016,8.99331 L 194.77937,326.5074 a 44.966454,44.966454 0 0 0 1.64872,-11.91602 44.142069,44.142069 0 1 0 -44.21702,43.61748 43.542516,43.542516 0 0 0 26.53015,-8.99331 l 48.41386,33.42499 a 44.142069,44.142069 0 0 0 0,23.90722 l -48.56375,33.2003 a 43.542516,43.542516 0 0 0 -26.38026,-8.99331 44.217011,44.217011 0 1 0 44.14206,44.14194 44.966454,44.966454 0 0 0 -1.57376,-11.76614 l 48.56372,-33.2003 a 43.76735,43.76735 0 0 0 26.53016,8.99333 44.217011,44.217011 0 0 0 0,-88.2092 z"/>
</g>
      <rect x="351" y="47" fill="none" width="33" rx="4" ry="4" height="33"/>
      <text fill="black" x="328" xml:space="preserve" y="98" stroke="none">Retrieve K-Hops 0</text>
      <rect x="351" y="127" fill="white" width="33" rx="4" ry="4" height="33" stroke="none"/>
      <g xmlns:sodipodi="http://sodipodi.sourceforge.net/DTD/sodipodi-0.dtd" xmlns:rdf="http://www.w3.org/1999/02/22-rdf-syntax-ns#" xmlns:inkscape="http://www.inkscape.org/namespaces/inkscape" xmlns:dc="http://purl.org/dc/elements/1.1/" xmlns:cc="http://creativecommons.org/ns#" filename="neo4j_cypher.svg" transform="translate(352 128) scale(0.06 0.06) rotate(0 266.5 266.5)" stroke="none">
  <path style="fill:#000000;stroke-width:2.22373605" d="m 127.02311,25.696386 c 0.78986,16.27965 0.12492,32.5612 -0.9393,48.83755 -3.77733,31.192734 -6.51055,62.394944 -7.73183,93.608664 -0.42771,14.04192 -0.46481,28.08505 0.20615,42.1261 0.19829,3.36454 0.47162,6.72823 0.44418,10.09353 0.0659,4.35627 1.10296,8.70611 1.64014,13.05911 0.22028,2.50815 0.45006,5.016 0.92993,7.52059 0,0 -34.150431,5.61555 -34.150431,5.61555 v 0 c 0.0793,-2.53366 -0.008,-5.06746 -0.32707,-7.59949 -0.54504,-4.34579 -1.65374,-8.68134 -2.16411,-13.02434 -0.0793,-3.41405 0.11627,-6.8271 0.398,-10.24 1.02879,-14.24468 2.09763,-28.48915 3.38254,-42.7317 2.78589,-31.21674 6.24525,-62.4286 8.07992,-93.652974 -0.0353,-15.99493 -0.34554,-32.01442 -3.67619,-47.97971 0,0 33.908271,-5.63288 33.908271,-5.63288 z"/>
    <path style="fill:#000000;stroke-width:2.30626583" d="m 226.79301,8.0966357 c -3.72204,9.9188003 -5.02817,19.8786603 -6.16108,29.8377503 -0.97098,19.7584 -3.59565,39.50581 -5.42629,59.25927 -1.52696,17.563794 -1.57974,35.133224 -1.69764,52.700714 -0.664,14.21098 0.16031,28.41629 1.57746,42.62145 0.77655,7.46199 1.66367,14.9231 2.46995,22.38485 0.0545,0.55529 0.10894,1.11056 0.16389,1.66583 0,0 -38.55506,5.25172 -38.55506,5.25172 v 0 c 0.0134,-0.56363 0.0312,-1.12728 0.0447,-1.69091 0.12856,-7.54211 -0.12053,-15.08415 -0.61704,-22.62516 -0.9273,-14.24757 -1.31028,-28.49383 -0.90988,-42.74375 0.38673,-17.62933 1.38982,-35.25658 2.85775,-52.88195 1.75649,-19.703034 4.61459,-39.401084 4.36934,-59.113054 0.45389,-9.79513 1.09745,-19.58868 2.92683,-29.37263 0,0 38.95764,-5.2941303 38.95764,-5.2941303 z"/>
    <path style="fill:#000000;stroke-width:2.61456156" d="m 25.843749,74.449766 c 17.04643,1.86359 34.09939,2.03985 51.14951,2.48462 33.477971,1.90297 66.957191,2.9894 100.437281,3.53582 26.50275,0.3345 53.00548,0.034 79.50793,-0.54222 11.1475,-0.25979 22.29475,-0.73337 33.44142,-1.41579 2.29694,-0.1488 4.59391,-0.29262 6.89104,-0.36166 0,0 -9.56373,32.564054 -9.56373,32.564054 v 0 c -2.22825,-0.064 -4.45635,-0.19811 -6.68441,-0.3413 -10.87079,-0.65661 -21.74208,-1.11534 -32.61359,-1.40774 -26.26317,-0.69622 -52.52647,-1.25454 -78.78968,-1.92575 -33.57071,-0.8714 -67.14098,-2.29273 -100.712241,-2.57438 -17.53666,0.45055 -35.07578,0.65804 -52.60899,2.48462 0,0 9.54546,-32.500274 9.54546,-32.500274 z"/>
    <path style="fill:#000000;stroke-width:2.81284857" d="m 49.003029,142.82461 c 15.69256,4.01264 31.43871,3.9872 47.1567,4.7936 37.585451,2.52403 75.165841,0.44598 112.746271,-2.11041 16.54655,-0.91357 33.08611,-2.20385 49.62426,-4.48353 0,0 -9.54491,28.30666 -9.54491,28.30666 v 0 c -16.35649,1.37691 -32.71325,1.97809 -49.07209,2.78116 -37.78104,2.28097 -75.56024,4.26168 -113.346821,3.76626 -16.23421,0.23233 -32.48263,1.06418 -48.71077,-0.9435 0,0 11.14736,-32.11024 11.14736,-32.11024 z" id="path42"/>
    <path style="fill:#000000;stroke-width:7.49440956" d="m 378.76707,140.87099 c -79.29083,0 -132.50116,46.1656 -132.50116,135.72375 v 63.85233 a 59.95527,59.95527 0 0 1 25.8557,-6.14542 59.130888,59.130888 0 0 1 25.93063,5.99553 v -64.00234 c 0,-58.08162 32.07605,-87.90931 80.93966,-87.90931 48.86348,0 80.48989,29.82769 80.48989,87.90931 v 139.54599 h 51.63643 V 276.29484 C 511.26905,186.21212 458.05778,140.87099 378.76707,140.87099 Z"/>
    <path style="fill:#018bff;stroke-width:7.49440956" d="m 269.87325,350.71438 a 43.76735,43.76735 0 0 0 -26.53016,8.99331 L 194.77937,326.5074 a 44.966454,44.966454 0 0 0 1.64872,-11.91602 44.142069,44.142069 0 1 0 -44.21702,43.61748 43.542516,43.542516 0 0 0 26.53015,-8.99331 l 48.41386,33.42499 a 44.142069,44.142069 0 0 0 0,23.90722 l -48.56375,33.2003 a 43.542516,43.542516 0 0 0 -26.38026,-8.99331 44.217011,44.217011 0 1 0 44.14206,44.14194 44.966454,44.966454 0 0 0 -1.57376,-11.76614 l 48.56372,-33.2003 a 43.76735,43.76735 0 0 0 26.53016,8.99333 44.217011,44.217011 0 0 0 0,-88.2092 z"/>
</g>
      <rect x="351" y="127" fill="none" width="33" rx="4" ry="4" height="33"/>
      <text fill="black" x="328" xml:space="preserve" y="178" stroke="none">Retrieve K-Hops 1</text>
      <rect x="351" y="207" fill="white" width="33" rx="4" ry="4" height="33" stroke="none"/>
      <g xmlns:sodipodi="http://sodipodi.sourceforge.net/DTD/sodipodi-0.dtd" xmlns:rdf="http://www.w3.org/1999/02/22-rdf-syntax-ns#" xmlns:inkscape="http://www.inkscape.org/namespaces/inkscape" xmlns:dc="http://purl.org/dc/elements/1.1/" xmlns:cc="http://creativecommons.org/ns#" filename="neo4j_cypher.svg" transform="translate(352 208) scale(0.06 0.06) rotate(0 266.5 266.5)" stroke="none">
  <path style="fill:#000000;stroke-width:2.22373605" d="m 127.02311,25.696386 c 0.78986,16.27965 0.12492,32.5612 -0.9393,48.83755 -3.77733,31.192734 -6.51055,62.394944 -7.73183,93.608664 -0.42771,14.04192 -0.46481,28.08505 0.20615,42.1261 0.19829,3.36454 0.47162,6.72823 0.44418,10.09353 0.0659,4.35627 1.10296,8.70611 1.64014,13.05911 0.22028,2.50815 0.45006,5.016 0.92993,7.52059 0,0 -34.150431,5.61555 -34.150431,5.61555 v 0 c 0.0793,-2.53366 -0.008,-5.06746 -0.32707,-7.59949 -0.54504,-4.34579 -1.65374,-8.68134 -2.16411,-13.02434 -0.0793,-3.41405 0.11627,-6.8271 0.398,-10.24 1.02879,-14.24468 2.09763,-28.48915 3.38254,-42.7317 2.78589,-31.21674 6.24525,-62.4286 8.07992,-93.652974 -0.0353,-15.99493 -0.34554,-32.01442 -3.67619,-47.97971 0,0 33.908271,-5.63288 33.908271,-5.63288 z"/>
    <path style="fill:#000000;stroke-width:2.30626583" d="m 226.79301,8.0966357 c -3.72204,9.9188003 -5.02817,19.8786603 -6.16108,29.8377503 -0.97098,19.7584 -3.59565,39.50581 -5.42629,59.25927 -1.52696,17.563794 -1.57974,35.133224 -1.69764,52.700714 -0.664,14.21098 0.16031,28.41629 1.57746,42.62145 0.77655,7.46199 1.66367,14.9231 2.46995,22.38485 0.0545,0.55529 0.10894,1.11056 0.16389,1.66583 0,0 -38.55506,5.25172 -38.55506,5.25172 v 0 c 0.0134,-0.56363 0.0312,-1.12728 0.0447,-1.69091 0.12856,-7.54211 -0.12053,-15.08415 -0.61704,-22.62516 -0.9273,-14.24757 -1.31028,-28.49383 -0.90988,-42.74375 0.38673,-17.62933 1.38982,-35.25658 2.85775,-52.88195 1.75649,-19.703034 4.61459,-39.401084 4.36934,-59.113054 0.45389,-9.79513 1.09745,-19.58868 2.92683,-29.37263 0,0 38.95764,-5.2941303 38.95764,-5.2941303 z"/>
    <path style="fill:#000000;stroke-width:2.61456156" d="m 25.843749,74.449766 c 17.04643,1.86359 34.09939,2.03985 51.14951,2.48462 33.477971,1.90297 66.957191,2.9894 100.437281,3.53582 26.50275,0.3345 53.00548,0.034 79.50793,-0.54222 11.1475,-0.25979 22.29475,-0.73337 33.44142,-1.41579 2.29694,-0.1488 4.59391,-0.29262 6.89104,-0.36166 0,0 -9.56373,32.564054 -9.56373,32.564054 v 0 c -2.22825,-0.064 -4.45635,-0.19811 -6.68441,-0.3413 -10.87079,-0.65661 -21.74208,-1.11534 -32.61359,-1.40774 -26.26317,-0.69622 -52.52647,-1.25454 -78.78968,-1.92575 -33.57071,-0.8714 -67.14098,-2.29273 -100.712241,-2.57438 -17.53666,0.45055 -35.07578,0.65804 -52.60899,2.48462 0,0 9.54546,-32.500274 9.54546,-32.500274 z"/>
    <path style="fill:#000000;stroke-width:2.81284857" d="m 49.003029,142.82461 c 15.69256,4.01264 31.43871,3.9872 47.1567,4.7936 37.585451,2.52403 75.165841,0.44598 112.746271,-2.11041 16.54655,-0.91357 33.08611,-2.20385 49.62426,-4.48353 0,0 -9.54491,28.30666 -9.54491,28.30666 v 0 c -16.35649,1.37691 -32.71325,1.97809 -49.07209,2.78116 -37.78104,2.28097 -75.56024,4.26168 -113.346821,3.76626 -16.23421,0.23233 -32.48263,1.06418 -48.71077,-0.9435 0,0 11.14736,-32.11024 11.14736,-32.11024 z" id="path42"/>
    <path style="fill:#000000;stroke-width:7.49440956" d="m 378.76707,140.87099 c -79.29083,0 -132.50116,46.1656 -132.50116,135.72375 v 63.85233 a 59.95527,59.95527 0 0 1 25.8557,-6.14542 59.130888,59.130888 0 0 1 25.93063,5.99553 v -64.00234 c 0,-58.08162 32.07605,-87.90931 80.93966,-87.90931 48.86348,0 80.48989,29.82769 80.48989,87.90931 v 139.54599 h 51.63643 V 276.29484 C 511.26905,186.21212 458.05778,140.87099 378.76707,140.87099 Z"/>
    <path style="fill:#018bff;stroke-width:7.49440956" d="m 269.87325,350.71438 a 43.76735,43.76735 0 0 0 -26.53016,8.99331 L 194.77937,326.5074 a 44.966454,44.966454 0 0 0 1.64872,-11.91602 44.142069,44.142069 0 1 0 -44.21702,43.61748 43.542516,43.542516 0 0 0 26.53015,-8.99331 l 48.41386,33.42499 a 44.142069,44.142069 0 0 0 0,23.90722 l -48.56375,33.2003 a 43.542516,43.542516 0 0 0 -26.38026,-8.99331 44.217011,44.217011 0 1 0 44.14206,44.14194 44.966454,44.966454 0 0 0 -1.57376,-11.76614 l 48.56372,-33.2003 a 43.76735,43.76735 0 0 0 26.53016,8.99333 44.217011,44.217011 0 0 0 0,-88.2092 z"/>
</g>
      <rect x="351" y="207" fill="none" width="33" rx="4" ry="4" height="33"/>
      <text fill="black" x="328" xml:space="preserve" y="258" stroke="none">Retrieve K-Hops 2</text>
      <rect x="351" y="287" fill="white" width="33" rx="4" ry="4" height="33" stroke="none"/>
      <g xmlns:sodipodi="http://sodipodi.sourceforge.net/DTD/sodipodi-0.dtd" xmlns:rdf="http://www.w3.org/1999/02/22-rdf-syntax-ns#" xmlns:inkscape="http://www.inkscape.org/namespaces/inkscape" xmlns:dc="http://purl.org/dc/elements/1.1/" xmlns:cc="http://creativecommons.org/ns#" filename="neo4j_cypher.svg" transform="translate(352 288) scale(0.06 0.06) rotate(0 266.5 266.5)" stroke="none">
  <path style="fill:#000000;stroke-width:2.22373605" d="m 127.02311,25.696386 c 0.78986,16.27965 0.12492,32.5612 -0.9393,48.83755 -3.77733,31.192734 -6.51055,62.394944 -7.73183,93.608664 -0.42771,14.04192 -0.46481,28.08505 0.20615,42.1261 0.19829,3.36454 0.47162,6.72823 0.44418,10.09353 0.0659,4.35627 1.10296,8.70611 1.64014,13.05911 0.22028,2.50815 0.45006,5.016 0.92993,7.52059 0,0 -34.150431,5.61555 -34.150431,5.61555 v 0 c 0.0793,-2.53366 -0.008,-5.06746 -0.32707,-7.59949 -0.54504,-4.34579 -1.65374,-8.68134 -2.16411,-13.02434 -0.0793,-3.41405 0.11627,-6.8271 0.398,-10.24 1.02879,-14.24468 2.09763,-28.48915 3.38254,-42.7317 2.78589,-31.21674 6.24525,-62.4286 8.07992,-93.652974 -0.0353,-15.99493 -0.34554,-32.01442 -3.67619,-47.97971 0,0 33.908271,-5.63288 33.908271,-5.63288 z"/>
    <path style="fill:#000000;stroke-width:2.30626583" d="m 226.79301,8.0966357 c -3.72204,9.9188003 -5.02817,19.8786603 -6.16108,29.8377503 -0.97098,19.7584 -3.59565,39.50581 -5.42629,59.25927 -1.52696,17.563794 -1.57974,35.133224 -1.69764,52.700714 -0.664,14.21098 0.16031,28.41629 1.57746,42.62145 0.77655,7.46199 1.66367,14.9231 2.46995,22.38485 0.0545,0.55529 0.10894,1.11056 0.16389,1.66583 0,0 -38.55506,5.25172 -38.55506,5.25172 v 0 c 0.0134,-0.56363 0.0312,-1.12728 0.0447,-1.69091 0.12856,-7.54211 -0.12053,-15.08415 -0.61704,-22.62516 -0.9273,-14.24757 -1.31028,-28.49383 -0.90988,-42.74375 0.38673,-17.62933 1.38982,-35.25658 2.85775,-52.88195 1.75649,-19.703034 4.61459,-39.401084 4.36934,-59.113054 0.45389,-9.79513 1.09745,-19.58868 2.92683,-29.37263 0,0 38.95764,-5.2941303 38.95764,-5.2941303 z"/>
    <path style="fill:#000000;stroke-width:2.61456156" d="m 25.843749,74.449766 c 17.04643,1.86359 34.09939,2.03985 51.14951,2.48462 33.477971,1.90297 66.957191,2.9894 100.437281,3.53582 26.50275,0.3345 53.00548,0.034 79.50793,-0.54222 11.1475,-0.25979 22.29475,-0.73337 33.44142,-1.41579 2.29694,-0.1488 4.59391,-0.29262 6.89104,-0.36166 0,0 -9.56373,32.564054 -9.56373,32.564054 v 0 c -2.22825,-0.064 -4.45635,-0.19811 -6.68441,-0.3413 -10.87079,-0.65661 -21.74208,-1.11534 -32.61359,-1.40774 -26.26317,-0.69622 -52.52647,-1.25454 -78.78968,-1.92575 -33.57071,-0.8714 -67.14098,-2.29273 -100.712241,-2.57438 -17.53666,0.45055 -35.07578,0.65804 -52.60899,2.48462 0,0 9.54546,-32.500274 9.54546,-32.500274 z"/>
    <path style="fill:#000000;stroke-width:2.81284857" d="m 49.003029,142.82461 c 15.69256,4.01264 31.43871,3.9872 47.1567,4.7936 37.585451,2.52403 75.165841,0.44598 112.746271,-2.11041 16.54655,-0.91357 33.08611,-2.20385 49.62426,-4.48353 0,0 -9.54491,28.30666 -9.54491,28.30666 v 0 c -16.35649,1.37691 -32.71325,1.97809 -49.07209,2.78116 -37.78104,2.28097 -75.56024,4.26168 -113.346821,3.76626 -16.23421,0.23233 -32.48263,1.06418 -48.71077,-0.9435 0,0 11.14736,-32.11024 11.14736,-32.11024 z" id="path42"/>
    <path style="fill:#000000;stroke-width:7.49440956" d="m 378.76707,140.87099 c -79.29083,0 -132.50116,46.1656 -132.50116,135.72375 v 63.85233 a 59.95527,59.95527 0 0 1 25.8557,-6.14542 59.130888,59.130888 0 0 1 25.93063,5.99553 v -64.00234 c 0,-58.08162 32.07605,-87.90931 80.93966,-87.90931 48.86348,0 80.48989,29.82769 80.48989,87.90931 v 139.54599 h 51.63643 V 276.29484 C 511.26905,186.21212 458.05778,140.87099 378.76707,140.87099 Z"/>
    <path style="fill:#018bff;stroke-width:7.49440956" d="m 269.87325,350.71438 a 43.76735,43.76735 0 0 0 -26.53016,8.99331 L 194.77937,326.5074 a 44.966454,44.966454 0 0 0 1.64872,-11.91602 44.142069,44.142069 0 1 0 -44.21702,43.61748 43.542516,43.542516 0 0 0 26.53015,-8.99331 l 48.41386,33.42499 a 44.142069,44.142069 0 0 0 0,23.90722 l -48.56375,33.2003 a 43.542516,43.542516 0 0 0 -26.38026,-8.99331 44.217011,44.217011 0 1 0 44.14206,44.14194 44.966454,44.966454 0 0 0 -1.57376,-11.76614 l 48.56372,-33.2003 a 43.76735,43.76735 0 0 0 26.53016,8.99333 44.217011,44.217011 0 0 0 0,-88.2092 z"/>
</g>
      <rect x="351" y="287" fill="none" width="33" rx="4" ry="4" height="33"/>
      <text fill="black" x="328" xml:space="preserve" y="338" stroke="none">Retrieve K-Hops 3</text>
      <rect x="527" y="47" fill="white" width="33" rx="4" ry="4" height="33" stroke="none"/>
      <g xmlns:sodipodi="http://sodipodi.sourceforge.net/DTD/sodipodi-0.dtd" xmlns:rdf="http://www.w3.org/1999/02/22-rdf-syntax-ns#" xmlns:inkscape="http://www.inkscape.org/namespaces/inkscape" xmlns:dc="http://purl.org/dc/elements/1.1/" xmlns:cc="http://creativecommons.org/ns#" filename="parquet_output.svg" transform="translate(528 48) scale(0.516 0.516) rotate(0 31 24.5)" stroke="none">
    <g transform="matrix(0.8954639,0,0,0.8954639,117.88445,-29.403598)">
        <path style="fill:#50abf1;fill-opacity:1;stroke-width:0.26458332" d="m -87.639384,48.103807 c -0.83674,-0.517127 -1.51902,-1.079486 -1.51617,-1.249686 0.005,-0.288357 4.23388,-3.121404 4.92767,-3.301058        0.31903,-0.08261 3.16523,1.418646 3.39527,1.790869 0.0693,0.112184 -0.0795,0.386977 -0.33072,0.610652 -0.85926,0.765019 -4.38703,3.103634        -4.67108,3.096539 -0.15599,-0.0039 -0.96822,-0.430188 -1.80497,-0.947316 z m -12.435416,1.582474 c -0.69122,-0.518846 -1.25604,-1.080778        -1.25516,-1.248736 7.9e-4,-0.167959 2.795806,-1.95109 6.210946,-3.962515 l 6.20936,-3.657135 1.59425,0.849728 c 0.87684,0.46735        1.59425,0.939985 1.59425,1.050299 0,0.313658 -12.17573,7.928766 -12.66282,7.919746 -0.23873,-0.004 -0.9996,-0.43254 -1.690826,-0.951387 z        m -22.92651,7.203557 -1.41104,-1.42879 0.62633,-0.40588 c 0.34448,-0.22324 7.33677,-4.03737 15.53841,-8.475859 l 14.912086,-8.069972        1.42593,0.699344 c 0.78427,0.38464 1.42594,0.82959 1.42594,0.988779 0,0.217853 -30.659476,18.121168 -31.032546,18.121168 -0.0407,0        -0.70904,-0.64296 -1.48511,-1.42879 z m 39.407826,4.2842 c -1.07349,-0.77011 -1.99321,-1.52478 -2.04382,-1.67704 -0.0722,-0.21722        9.65735,-8.30344 11.86437,-9.860476 0.42906,-0.302698 0.76662,-0.201878 2.60671,0.778566 1.1626,0.61946 2.112128,1.25218 2.110065,1.40606        -0.0053,0.39367 -11.585555,10.58162 -12.134815,10.67581 -0.24789,0.0425 -1.32902,-0.5528 -2.40251,-1.32292 z m -35.462046,-0.0987 c        -1.16667,-1.23358 -1.33631,-1.53156 -1.03056,-1.81025 0.26442,-0.24102 14.93094,-8.9035 16.70498,-9.866459 0.29295,-0.159015        3.402316,2.083569 3.30281,2.382099 -0.12863,0.38591 -16.66927,10.77042 -17.15603,10.77087 -0.23356,2.1e-4 -1.05309,-0.6641 -1.8212,-1.47626        z m 20.559606,2.38265 c -0.97752,-0.81138 -1.772016,-1.61506 -1.765556,-1.78594 0.006,-0.17087 0.869676,-0.91362 1.918226,-1.65054        1.04856,-0.73692 5.74979,-4.10043 10.44717,-7.47448 4.69738,-3.374042 8.73407,-6.134624 8.97041,-6.134624 0.63219,0 3.83253,1.850348        3.73038,2.156804 -0.14839,0.44515 -20.68696,16.35703 -21.11781,16.36063 -0.22302,0.002 -1.20529,-0.66046 -2.18282,-1.47185 z m        -15.791686,2.41373 c -1.48244,-1.49905 -1.65932,-1.77866 -1.32291,-2.09124 0.48226,-0.44811 24.159556,-15.733344 24.643396,-15.908928        0.37882,-0.137469 3.65847,1.848334 3.65847,2.215175 0,0.262223 -24.272676,17.260193 -24.863536,17.411753 -0.23462,0.0602 -1.12204,-0.62225        -2.11542,-1.62676 z m 5.13251,5.26842 c -1.03474,-1.15615 -1.68452,-2.08962 -1.54513,-2.21974 0.7219,-0.67391 8.17024,-5.8387        8.41597,-5.83577 0.40037,0.005 3.995396,3.08705 3.995396,3.42553 0,0.41622 -8.066246,6.62516 -8.606966,6.62516 -0.26047,0 -1.27714,-0.89783        -2.25927,-1.99518 z m 6.25912,6.38404 c -1.3218,-1.32871 -2.15786,-2.37251 -2.07445,-2.5899 0.15068,-0.39266 17.280786,-14.23912        17.601056,-14.22713 0.39482,0.0148 4.42634,3.07772 4.42634,3.3629 0,0.30012 -17.220596,15.67988 -17.556646,15.67988 -0.10016,0        -1.17849,-1.00159 -2.3963,-2.22575 z m 6.763806,6.94892 c -2.45176,-2.61569 -2.525,-2.72897 -2.08429,-3.22357 0.69857,-0.784        30.4958,-28.05978 30.923573,-28.30682 0.370096,-0.21373 4.023447,1.5502 4.821637,2.328 0.305998,0.29819 -2.068179,2.83579 -15.02077,16.05471        -8.46132,8.6353 -15.54507,15.73611 -15.74165,15.77959 -0.19659,0.0435 -1.50091,-1.14089 -2.8985,-2.63191 z"/>
    </g>
    <polygon style="fill:#3d6480" points="3.3,4.7 8.5,9.9 5.3,9.9 5.3,11.8 11.7,11.8 11.7,5.5 9.8,5.5 9.8,8.5 4.6,3.3 " transform="matrix(1.6735955,0,0,1.6735955,-2.9446406,-3.9135239)"/>
</g>
      <rect x="527" y="47" fill="none" width="33" rx="4" ry="4" height="33"/>
      <text fill="black" x="507" xml:space="preserve" y="98" stroke="none">vertext_output_0</text>
      <rect x="527" y="127" fill="white" width="33" rx="4" ry="4" height="33" stroke="none"/>
      <g xmlns:sodipodi="http://sodipodi.sourceforge.net/DTD/sodipodi-0.dtd" xmlns:rdf="http://www.w3.org/1999/02/22-rdf-syntax-ns#" xmlns:inkscape="http://www.inkscape.org/namespaces/inkscape" xmlns:dc="http://purl.org/dc/elements/1.1/" xmlns:cc="http://creativecommons.org/ns#" filename="parquet_output.svg" transform="translate(528 128) scale(0.516 0.516) rotate(0 31 24.5)" stroke="none">
    <g transform="matrix(0.8954639,0,0,0.8954639,117.88445,-29.403598)">
        <path style="fill:#50abf1;fill-opacity:1;stroke-width:0.26458332" d="m -87.639384,48.103807 c -0.83674,-0.517127 -1.51902,-1.079486 -1.51617,-1.249686 0.005,-0.288357 4.23388,-3.121404 4.92767,-3.301058        0.31903,-0.08261 3.16523,1.418646 3.39527,1.790869 0.0693,0.112184 -0.0795,0.386977 -0.33072,0.610652 -0.85926,0.765019 -4.38703,3.103634        -4.67108,3.096539 -0.15599,-0.0039 -0.96822,-0.430188 -1.80497,-0.947316 z m -12.435416,1.582474 c -0.69122,-0.518846 -1.25604,-1.080778        -1.25516,-1.248736 7.9e-4,-0.167959 2.795806,-1.95109 6.210946,-3.962515 l 6.20936,-3.657135 1.59425,0.849728 c 0.87684,0.46735        1.59425,0.939985 1.59425,1.050299 0,0.313658 -12.17573,7.928766 -12.66282,7.919746 -0.23873,-0.004 -0.9996,-0.43254 -1.690826,-0.951387 z        m -22.92651,7.203557 -1.41104,-1.42879 0.62633,-0.40588 c 0.34448,-0.22324 7.33677,-4.03737 15.53841,-8.475859 l 14.912086,-8.069972        1.42593,0.699344 c 0.78427,0.38464 1.42594,0.82959 1.42594,0.988779 0,0.217853 -30.659476,18.121168 -31.032546,18.121168 -0.0407,0        -0.70904,-0.64296 -1.48511,-1.42879 z m 39.407826,4.2842 c -1.07349,-0.77011 -1.99321,-1.52478 -2.04382,-1.67704 -0.0722,-0.21722        9.65735,-8.30344 11.86437,-9.860476 0.42906,-0.302698 0.76662,-0.201878 2.60671,0.778566 1.1626,0.61946 2.112128,1.25218 2.110065,1.40606        -0.0053,0.39367 -11.585555,10.58162 -12.134815,10.67581 -0.24789,0.0425 -1.32902,-0.5528 -2.40251,-1.32292 z m -35.462046,-0.0987 c        -1.16667,-1.23358 -1.33631,-1.53156 -1.03056,-1.81025 0.26442,-0.24102 14.93094,-8.9035 16.70498,-9.866459 0.29295,-0.159015        3.402316,2.083569 3.30281,2.382099 -0.12863,0.38591 -16.66927,10.77042 -17.15603,10.77087 -0.23356,2.1e-4 -1.05309,-0.6641 -1.8212,-1.47626        z m 20.559606,2.38265 c -0.97752,-0.81138 -1.772016,-1.61506 -1.765556,-1.78594 0.006,-0.17087 0.869676,-0.91362 1.918226,-1.65054        1.04856,-0.73692 5.74979,-4.10043 10.44717,-7.47448 4.69738,-3.374042 8.73407,-6.134624 8.97041,-6.134624 0.63219,0 3.83253,1.850348        3.73038,2.156804 -0.14839,0.44515 -20.68696,16.35703 -21.11781,16.36063 -0.22302,0.002 -1.20529,-0.66046 -2.18282,-1.47185 z m        -15.791686,2.41373 c -1.48244,-1.49905 -1.65932,-1.77866 -1.32291,-2.09124 0.48226,-0.44811 24.159556,-15.733344 24.643396,-15.908928        0.37882,-0.137469 3.65847,1.848334 3.65847,2.215175 0,0.262223 -24.272676,17.260193 -24.863536,17.411753 -0.23462,0.0602 -1.12204,-0.62225        -2.11542,-1.62676 z m 5.13251,5.26842 c -1.03474,-1.15615 -1.68452,-2.08962 -1.54513,-2.21974 0.7219,-0.67391 8.17024,-5.8387        8.41597,-5.83577 0.40037,0.005 3.995396,3.08705 3.995396,3.42553 0,0.41622 -8.066246,6.62516 -8.606966,6.62516 -0.26047,0 -1.27714,-0.89783        -2.25927,-1.99518 z m 6.25912,6.38404 c -1.3218,-1.32871 -2.15786,-2.37251 -2.07445,-2.5899 0.15068,-0.39266 17.280786,-14.23912        17.601056,-14.22713 0.39482,0.0148 4.42634,3.07772 4.42634,3.3629 0,0.30012 -17.220596,15.67988 -17.556646,15.67988 -0.10016,0        -1.17849,-1.00159 -2.3963,-2.22575 z m 6.763806,6.94892 c -2.45176,-2.61569 -2.525,-2.72897 -2.08429,-3.22357 0.69857,-0.784        30.4958,-28.05978 30.923573,-28.30682 0.370096,-0.21373 4.023447,1.5502 4.821637,2.328 0.305998,0.29819 -2.068179,2.83579 -15.02077,16.05471        -8.46132,8.6353 -15.54507,15.73611 -15.74165,15.77959 -0.19659,0.0435 -1.50091,-1.14089 -2.8985,-2.63191 z"/>
    </g>
    <polygon style="fill:#3d6480" points="3.3,4.7 8.5,9.9 5.3,9.9 5.3,11.8 11.7,11.8 11.7,5.5 9.8,5.5 9.8,8.5 4.6,3.3 " transform="matrix(1.6735955,0,0,1.6735955,-2.9446406,-3.9135239)"/>
</g>
      <rect x="527" y="127" fill="none" width="33" rx="4" ry="4" height="33"/>
      <text fill="black" x="507" xml:space="preserve" y="178" stroke="none">vertext_output_1</text>
      <rect x="527" y="207" fill="white" width="33" rx="4" ry="4" height="33" stroke="none"/>
      <g xmlns:sodipodi="http://sodipodi.sourceforge.net/DTD/sodipodi-0.dtd" xmlns:rdf="http://www.w3.org/1999/02/22-rdf-syntax-ns#" xmlns:inkscape="http://www.inkscape.org/namespaces/inkscape" xmlns:dc="http://purl.org/dc/elements/1.1/" xmlns:cc="http://creativecommons.org/ns#" filename="parquet_output.svg" transform="translate(528 208) scale(0.516 0.516) rotate(0 31 24.5)" stroke="none">
    <g transform="matrix(0.8954639,0,0,0.8954639,117.88445,-29.403598)">
        <path style="fill:#50abf1;fill-opacity:1;stroke-width:0.26458332" d="m -87.639384,48.103807 c -0.83674,-0.517127 -1.51902,-1.079486 -1.51617,-1.249686 0.005,-0.288357 4.23388,-3.121404 4.92767,-3.301058        0.31903,-0.08261 3.16523,1.418646 3.39527,1.790869 0.0693,0.112184 -0.0795,0.386977 -0.33072,0.610652 -0.85926,0.765019 -4.38703,3.103634        -4.67108,3.096539 -0.15599,-0.0039 -0.96822,-0.430188 -1.80497,-0.947316 z m -12.435416,1.582474 c -0.69122,-0.518846 -1.25604,-1.080778        -1.25516,-1.248736 7.9e-4,-0.167959 2.795806,-1.95109 6.210946,-3.962515 l 6.20936,-3.657135 1.59425,0.849728 c 0.87684,0.46735        1.59425,0.939985 1.59425,1.050299 0,0.313658 -12.17573,7.928766 -12.66282,7.919746 -0.23873,-0.004 -0.9996,-0.43254 -1.690826,-0.951387 z        m -22.92651,7.203557 -1.41104,-1.42879 0.62633,-0.40588 c 0.34448,-0.22324 7.33677,-4.03737 15.53841,-8.475859 l 14.912086,-8.069972        1.42593,0.699344 c 0.78427,0.38464 1.42594,0.82959 1.42594,0.988779 0,0.217853 -30.659476,18.121168 -31.032546,18.121168 -0.0407,0        -0.70904,-0.64296 -1.48511,-1.42879 z m 39.407826,4.2842 c -1.07349,-0.77011 -1.99321,-1.52478 -2.04382,-1.67704 -0.0722,-0.21722        9.65735,-8.30344 11.86437,-9.860476 0.42906,-0.302698 0.76662,-0.201878 2.60671,0.778566 1.1626,0.61946 2.112128,1.25218 2.110065,1.40606        -0.0053,0.39367 -11.585555,10.58162 -12.134815,10.67581 -0.24789,0.0425 -1.32902,-0.5528 -2.40251,-1.32292 z m -35.462046,-0.0987 c        -1.16667,-1.23358 -1.33631,-1.53156 -1.03056,-1.81025 0.26442,-0.24102 14.93094,-8.9035 16.70498,-9.866459 0.29295,-0.159015        3.402316,2.083569 3.30281,2.382099 -0.12863,0.38591 -16.66927,10.77042 -17.15603,10.77087 -0.23356,2.1e-4 -1.05309,-0.6641 -1.8212,-1.47626        z m 20.559606,2.38265 c -0.97752,-0.81138 -1.772016,-1.61506 -1.765556,-1.78594 0.006,-0.17087 0.869676,-0.91362 1.918226,-1.65054        1.04856,-0.73692 5.74979,-4.10043 10.44717,-7.47448 4.69738,-3.374042 8.73407,-6.134624 8.97041,-6.134624 0.63219,0 3.83253,1.850348        3.73038,2.156804 -0.14839,0.44515 -20.68696,16.35703 -21.11781,16.36063 -0.22302,0.002 -1.20529,-0.66046 -2.18282,-1.47185 z m        -15.791686,2.41373 c -1.48244,-1.49905 -1.65932,-1.77866 -1.32291,-2.09124 0.48226,-0.44811 24.159556,-15.733344 24.643396,-15.908928        0.37882,-0.137469 3.65847,1.848334 3.65847,2.215175 0,0.262223 -24.272676,17.260193 -24.863536,17.411753 -0.23462,0.0602 -1.12204,-0.62225        -2.11542,-1.62676 z m 5.13251,5.26842 c -1.03474,-1.15615 -1.68452,-2.08962 -1.54513,-2.21974 0.7219,-0.67391 8.17024,-5.8387        8.41597,-5.83577 0.40037,0.005 3.995396,3.08705 3.995396,3.42553 0,0.41622 -8.066246,6.62516 -8.606966,6.62516 -0.26047,0 -1.27714,-0.89783        -2.25927,-1.99518 z m 6.25912,6.38404 c -1.3218,-1.32871 -2.15786,-2.37251 -2.07445,-2.5899 0.15068,-0.39266 17.280786,-14.23912        17.601056,-14.22713 0.39482,0.0148 4.42634,3.07772 4.42634,3.3629 0,0.30012 -17.220596,15.67988 -17.556646,15.67988 -0.10016,0        -1.17849,-1.00159 -2.3963,-2.22575 z m 6.763806,6.94892 c -2.45176,-2.61569 -2.525,-2.72897 -2.08429,-3.22357 0.69857,-0.784        30.4958,-28.05978 30.923573,-28.30682 0.370096,-0.21373 4.023447,1.5502 4.821637,2.328 0.305998,0.29819 -2.068179,2.83579 -15.02077,16.05471        -8.46132,8.6353 -15.54507,15.73611 -15.74165,15.77959 -0.19659,0.0435 -1.50091,-1.14089 -2.8985,-2.63191 z"/>
    </g>
    <polygon style="fill:#3d6480" points="3.3,4.7 8.5,9.9 5.3,9.9 5.3,11.8 11.7,11.8 11.7,5.5 9.8,5.5 9.8,8.5 4.6,3.3 " transform="matrix(1.6735955,0,0,1.6735955,-2.9446406,-3.9135239)"/>
</g>
      <rect x="527" y="207" fill="none" width="33" rx="4" ry="4" height="33"/>
      <text fill="black" x="507" xml:space="preserve" y="258" stroke="none">vertext_output_2</text>
      <rect x="527" y="287" fill="white" width="33" rx="4" ry="4" height="33" stroke="none"/>
      <g xmlns:sodipodi="http://sodipodi.sourceforge.net/DTD/sodipodi-0.dtd" xmlns:rdf="http://www.w3.org/1999/02/22-rdf-syntax-ns#" xmlns:inkscape="http://www.inkscape.org/namespaces/inkscape" xmlns:dc="http://purl.org/dc/elements/1.1/" xmlns:cc="http://creativecommons.org/ns#" filename="parquet_output.svg" transform="translate(528 288) scale(0.516 0.516) rotate(0 31 24.5)" stroke="none">
    <g transform="matrix(0.8954639,0,0,0.8954639,117.88445,-29.403598)">
        <path style="fill:#50abf1;fill-opacity:1;stroke-width:0.26458332" d="m -87.639384,48.103807 c -0.83674,-0.517127 -1.51902,-1.079486 -1.51617,-1.249686 0.005,-0.288357 4.23388,-3.121404 4.92767,-3.301058        0.31903,-0.08261 3.16523,1.418646 3.39527,1.790869 0.0693,0.112184 -0.0795,0.386977 -0.33072,0.610652 -0.85926,0.765019 -4.38703,3.103634        -4.67108,3.096539 -0.15599,-0.0039 -0.96822,-0.430188 -1.80497,-0.947316 z m -12.435416,1.582474 c -0.69122,-0.518846 -1.25604,-1.080778        -1.25516,-1.248736 7.9e-4,-0.167959 2.795806,-1.95109 6.210946,-3.962515 l 6.20936,-3.657135 1.59425,0.849728 c 0.87684,0.46735        1.59425,0.939985 1.59425,1.050299 0,0.313658 -12.17573,7.928766 -12.66282,7.919746 -0.23873,-0.004 -0.9996,-0.43254 -1.690826,-0.951387 z        m -22.92651,7.203557 -1.41104,-1.42879 0.62633,-0.40588 c 0.34448,-0.22324 7.33677,-4.03737 15.53841,-8.475859 l 14.912086,-8.069972        1.42593,0.699344 c 0.78427,0.38464 1.42594,0.82959 1.42594,0.988779 0,0.217853 -30.659476,18.121168 -31.032546,18.121168 -0.0407,0        -0.70904,-0.64296 -1.48511,-1.42879 z m 39.407826,4.2842 c -1.07349,-0.77011 -1.99321,-1.52478 -2.04382,-1.67704 -0.0722,-0.21722        9.65735,-8.30344 11.86437,-9.860476 0.42906,-0.302698 0.76662,-0.201878 2.60671,0.778566 1.1626,0.61946 2.112128,1.25218 2.110065,1.40606        -0.0053,0.39367 -11.585555,10.58162 -12.134815,10.67581 -0.24789,0.0425 -1.32902,-0.5528 -2.40251,-1.32292 z m -35.462046,-0.0987 c        -1.16667,-1.23358 -1.33631,-1.53156 -1.03056,-1.81025 0.26442,-0.24102 14.93094,-8.9035 16.70498,-9.866459 0.29295,-0.159015        3.402316,2.083569 3.30281,2.382099 -0.12863,0.38591 -16.66927,10.77042 -17.15603,10.77087 -0.23356,2.1e-4 -1.05309,-0.6641 -1.8212,-1.47626        z m 20.559606,2.38265 c -0.97752,-0.81138 -1.772016,-1.61506 -1.765556,-1.78594 0.006,-0.17087 0.869676,-0.91362 1.918226,-1.65054        1.04856,-0.73692 5.74979,-4.10043 10.44717,-7.47448 4.69738,-3.374042 8.73407,-6.134624 8.97041,-6.134624 0.63219,0 3.83253,1.850348        3.73038,2.156804 -0.14839,0.44515 -20.68696,16.35703 -21.11781,16.36063 -0.22302,0.002 -1.20529,-0.66046 -2.18282,-1.47185 z m        -15.791686,2.41373 c -1.48244,-1.49905 -1.65932,-1.77866 -1.32291,-2.09124 0.48226,-0.44811 24.159556,-15.733344 24.643396,-15.908928        0.37882,-0.137469 3.65847,1.848334 3.65847,2.215175 0,0.262223 -24.272676,17.260193 -24.863536,17.411753 -0.23462,0.0602 -1.12204,-0.62225        -2.11542,-1.62676 z m 5.13251,5.26842 c -1.03474,-1.15615 -1.68452,-2.08962 -1.54513,-2.21974 0.7219,-0.67391 8.17024,-5.8387        8.41597,-5.83577 0.40037,0.005 3.995396,3.08705 3.995396,3.42553 0,0.41622 -8.066246,6.62516 -8.606966,6.62516 -0.26047,0 -1.27714,-0.89783        -2.25927,-1.99518 z m 6.25912,6.38404 c -1.3218,-1.32871 -2.15786,-2.37251 -2.07445,-2.5899 0.15068,-0.39266 17.280786,-14.23912        17.601056,-14.22713 0.39482,0.0148 4.42634,3.07772 4.42634,3.3629 0,0.30012 -17.220596,15.67988 -17.556646,15.67988 -0.10016,0        -1.17849,-1.00159 -2.3963,-2.22575 z m 6.763806,6.94892 c -2.45176,-2.61569 -2.525,-2.72897 -2.08429,-3.22357 0.69857,-0.784        30.4958,-28.05978 30.923573,-28.30682 0.370096,-0.21373 4.023447,1.5502 4.821637,2.328 0.305998,0.29819 -2.068179,2.83579 -15.02077,16.05471        -8.46132,8.6353 -15.54507,15.73611 -15.74165,15.77959 -0.19659,0.0435 -1.50091,-1.14089 -2.8985,-2.63191 z"/>
    </g>
    <polygon style="fill:#3d6480" points="3.3,4.7 8.5,9.9 5.3,9.9 5.3,11.8 11.7,11.8 11.7,5.5 9.8,5.5 9.8,8.5 4.6,3.3 " transform="matrix(1.6735955,0,0,1.6735955,-2.9446406,-3.9135239)"/>
</g>
      <rect x="527" y="287" fill="none" width="33" rx="4" ry="4" height="33"/>
      <text fill="black" x="507" xml:space="preserve" y="338" stroke="none">vertext_output_3</text>
      <rect x="63" y="191" fill="white" width="33" rx="4" ry="4" height="33" stroke="none"/>
      <g xmlns:sodipodi="http://sodipodi.sourceforge.net/DTD/sodipodi-0.dtd" xmlns:rdf="http://www.w3.org/1999/02/22-rdf-syntax-ns#" xmlns:inkscape="http://www.inkscape.org/namespaces/inkscape" xmlns:dc="http://purl.org/dc/elements/1.1/" xmlns:cc="http://creativecommons.org/ns#" filename="neo4j_cypher.svg" transform="translate(64 192) scale(0.06 0.06) rotate(0 266.5 266.5)" stroke="none">
  <path style="fill:#000000;stroke-width:2.22373605" d="m 127.02311,25.696386 c 0.78986,16.27965 0.12492,32.5612 -0.9393,48.83755 -3.77733,31.192734 -6.51055,62.394944 -7.73183,93.608664 -0.42771,14.04192 -0.46481,28.08505 0.20615,42.1261 0.19829,3.36454 0.47162,6.72823 0.44418,10.09353 0.0659,4.35627 1.10296,8.70611 1.64014,13.05911 0.22028,2.50815 0.45006,5.016 0.92993,7.52059 0,0 -34.150431,5.61555 -34.150431,5.61555 v 0 c 0.0793,-2.53366 -0.008,-5.06746 -0.32707,-7.59949 -0.54504,-4.34579 -1.65374,-8.68134 -2.16411,-13.02434 -0.0793,-3.41405 0.11627,-6.8271 0.398,-10.24 1.02879,-14.24468 2.09763,-28.48915 3.38254,-42.7317 2.78589,-31.21674 6.24525,-62.4286 8.07992,-93.652974 -0.0353,-15.99493 -0.34554,-32.01442 -3.67619,-47.97971 0,0 33.908271,-5.63288 33.908271,-5.63288 z"/>
    <path style="fill:#000000;stroke-width:2.30626583" d="m 226.79301,8.0966357 c -3.72204,9.9188003 -5.02817,19.8786603 -6.16108,29.8377503 -0.97098,19.7584 -3.59565,39.50581 -5.42629,59.25927 -1.52696,17.563794 -1.57974,35.133224 -1.69764,52.700714 -0.664,14.21098 0.16031,28.41629 1.57746,42.62145 0.77655,7.46199 1.66367,14.9231 2.46995,22.38485 0.0545,0.55529 0.10894,1.11056 0.16389,1.66583 0,0 -38.55506,5.25172 -38.55506,5.25172 v 0 c 0.0134,-0.56363 0.0312,-1.12728 0.0447,-1.69091 0.12856,-7.54211 -0.12053,-15.08415 -0.61704,-22.62516 -0.9273,-14.24757 -1.31028,-28.49383 -0.90988,-42.74375 0.38673,-17.62933 1.38982,-35.25658 2.85775,-52.88195 1.75649,-19.703034 4.61459,-39.401084 4.36934,-59.113054 0.45389,-9.79513 1.09745,-19.58868 2.92683,-29.37263 0,0 38.95764,-5.2941303 38.95764,-5.2941303 z"/>
    <path style="fill:#000000;stroke-width:2.61456156" d="m 25.843749,74.449766 c 17.04643,1.86359 34.09939,2.03985 51.14951,2.48462 33.477971,1.90297 66.957191,2.9894 100.437281,3.53582 26.50275,0.3345 53.00548,0.034 79.50793,-0.54222 11.1475,-0.25979 22.29475,-0.73337 33.44142,-1.41579 2.29694,-0.1488 4.59391,-0.29262 6.89104,-0.36166 0,0 -9.56373,32.564054 -9.56373,32.564054 v 0 c -2.22825,-0.064 -4.45635,-0.19811 -6.68441,-0.3413 -10.87079,-0.65661 -21.74208,-1.11534 -32.61359,-1.40774 -26.26317,-0.69622 -52.52647,-1.25454 -78.78968,-1.92575 -33.57071,-0.8714 -67.14098,-2.29273 -100.712241,-2.57438 -17.53666,0.45055 -35.07578,0.65804 -52.60899,2.48462 0,0 9.54546,-32.500274 9.54546,-32.500274 z"/>
    <path style="fill:#000000;stroke-width:2.81284857" d="m 49.003029,142.82461 c 15.69256,4.01264 31.43871,3.9872 47.1567,4.7936 37.585451,2.52403 75.165841,0.44598 112.746271,-2.11041 16.54655,-0.91357 33.08611,-2.20385 49.62426,-4.48353 0,0 -9.54491,28.30666 -9.54491,28.30666 v 0 c -16.35649,1.37691 -32.71325,1.97809 -49.07209,2.78116 -37.78104,2.28097 -75.56024,4.26168 -113.346821,3.76626 -16.23421,0.23233 -32.48263,1.06418 -48.71077,-0.9435 0,0 11.14736,-32.11024 11.14736,-32.11024 z" id="path42"/>
    <path style="fill:#000000;stroke-width:7.49440956" d="m 378.76707,140.87099 c -79.29083,0 -132.50116,46.1656 -132.50116,135.72375 v 63.85233 a 59.95527,59.95527 0 0 1 25.8557,-6.14542 59.130888,59.130888 0 0 1 25.93063,5.99553 v -64.00234 c 0,-58.08162 32.07605,-87.90931 80.93966,-87.90931 48.86348,0 80.48989,29.82769 80.48989,87.90931 v 139.54599 h 51.63643 V 276.29484 C 511.26905,186.21212 458.05778,140.87099 378.76707,140.87099 Z"/>
    <path style="fill:#018bff;stroke-width:7.49440956" d="m 269.87325,350.71438 a 43.76735,43.76735 0 0 0 -26.53016,8.99331 L 194.77937,326.5074 a 44.966454,44.966454 0 0 0 1.64872,-11.91602 44.142069,44.142069 0 1 0 -44.21702,43.61748 43.542516,43.542516 0 0 0 26.53015,-8.99331 l 48.41386,33.42499 a 44.142069,44.142069 0 0 0 0,23.90722 l -48.56375,33.2003 a 43.542516,43.542516 0 0 0 -26.38026,-8.99331 44.217011,44.217011 0 1 0 44.14206,44.14194 44.966454,44.966454 0 0 0 -1.57376,-11.76614 l 48.56372,-33.2003 a 43.76735,43.76735 0 0 0 26.53016,8.99333 44.217011,44.217011 0 0 0 0,-88.2092 z"/>
</g>
      <rect x="63" y="191" fill="none" width="33" rx="4" ry="4" height="33"/>
      <text fill="black" x="35" xml:space="preserve" y="242" stroke="none">Pull user internal id's</text>
    </g>
  </g>
</svg>
